  0
SECTION
  2
HEADER
  9
$ACADVER
  1
AC1009
  9
$FILLMODE
 70
1
  9
$EXTMIN
 10
25.3009
 20
2.4409
 30
0.0000
  9
$EXTMAX
 10
127.0991
 20
76.2991
 30
0.0000
  0
ENDSEC
  0
SECTION
  2
TABLES
  0
TABLE
  2
LTYPE
 70
1
  0
LTYPE
  2
CONTINUOUS
 70
64
  3
Solid line
 72
65
 73
0
 40
0
  0
ENDTAB
  0
TABLE
  2
LAYER
 70
255
  0
LAYER
  2
88
 70
64
 62
193
  6
CONTINUOUS
  0
LAYER
  2
89
 70
64
 62
193
  6
CONTINUOUS
  0
LAYER
  2
90
 70
64
 62
40
  6
CONTINUOUS
  0
LAYER
  2
91
 70
64
 62
122
  6
CONTINUOUS
  0
LAYER
  2
92
 70
64
 62
132
  6
CONTINUOUS
  0
LAYER
  2
94
 70
64
 62
12
  6
CONTINUOUS
  0
LAYER
  2
95
 70
64
 62
251
  6
CONTINUOUS
  0
LAYER
  2
96
 70
64
 62
251
  6
CONTINUOUS
  0
LAYER
  2
97
 70
64
 62
251
  6
CONTINUOUS
  0
LAYER
  2
98
 70
64
 62
53
  6
CONTINUOUS
  0
ENDTAB
  0
ENDSEC
  0
SECTION
  2
BLOCKS
  0
BLOCK
  8
0
  2
RECT
 70
64
 10
0.0000
 20
0.0000
 30
0.0000
  3
RECT
  0
SOLID
  8
0
 10
-0.5000
 20
-0.5000
 30
0.0000
 11
0.5000
 21
-0.5000
 31
0.0000
 12
-0.5000
 22
0.5000
 32
0.0000
 13
0.5000
 23
0.5000
 33
0.0000
  0
ENDBLK
  8
0
  0
BLOCK
  8
0
  2
PIE
 70
64
 10
0.0000
 20
0.0000
 30
0.0000
  3
PIE
  0
POLYLINE
  8
0
 66
1
 10
0.0000
 20
0.0000
 30
0.0000
 40
0.5000
 41
0.5000
 70
0
  0
VERTEX
  8
0
 10
0.0000
 20
-0.2500
 30
0.0000
 42
1.0000
  0
VERTEX
  8
0
 10
0.0000
 20
0.2500
 30
0.0000
 42
1.0000
  0
VERTEX
  8
0
 10
0.0000
 20
-0.2500
 30
0.0000
  0
SEQEND
  8
0
  0
ENDBLK
  8
0
  0
ENDSEC
  0
SECTION
  2
ENTITIES
  0
POLYLINE
  8
91
 66
1
 10
0.0000
 20
0.0000
 30
0.0000
 40
0.1524
 41
0.1524
 70
0
  0
VERTEX
  8
91
 10
25.4000
 20
73.6600
 30
0.0000
  0
VERTEX
  8
91
 10
25.4000
 20
2.5400
 30
0.0000
  0
SEQEND
  8
0
  0
POLYLINE
  8
91
 66
1
 10
0.0000
 20
0.0000
 30
0.0000
 40
0.0762
 41
0.0762
 70
0
  0
VERTEX
  8
91
 10
25.3619
 20
2.5400
 30
0.0000
 42
1.0000
  0
VERTEX
  8
91
 10
25.4381
 20
2.5400
 30
0.0000
  0
SEQEND
  8
0
  0
POLYLINE
  8
91
 66
1
 10
0.0000
 20
0.0000
 30
0.0000
 40
0.0762
 41
0.0762
 70
0
  0
VERTEX
  8
91
 10
25.4381
 20
73.6600
 30
0.0000
 42
1.0000
  0
VERTEX
  8
91
 10
25.3619
 20
73.6600
 30
0.0000
  0
SEQEND
  8
0
  0
POLYLINE
  8
91
 66
1
 10
0.0000
 20
0.0000
 30
0.0000
 40
0.1524
 41
0.1524
 70
0
  0
VERTEX
  8
91
 10
25.4000
 20
2.5400
 30
0.0000
  0
VERTEX
  8
91
 10
127.0000
 20
2.5400
 30
0.0000
  0
SEQEND
  8
0
  0
POLYLINE
  8
91
 66
1
 10
0.0000
 20
0.0000
 30
0.0000
 40
0.0762
 41
0.0762
 70
0
  0
VERTEX
  8
91
 10
127.0000
 20
2.5019
 30
0.0000
 42
1.0000
  0
VERTEX
  8
91
 10
127.0000
 20
2.5781
 30
0.0000
  0
SEQEND
  8
0
  0
POLYLINE
  8
91
 66
1
 10
0.0000
 20
0.0000
 30
0.0000
 40
0.0762
 41
0.0762
 70
0
  0
VERTEX
  8
91
 10
25.4000
 20
2.5781
 30
0.0000
 42
1.0000
  0
VERTEX
  8
91
 10
25.4000
 20
2.5019
 30
0.0000
  0
SEQEND
  8
0
  0
POLYLINE
  8
91
 66
1
 10
0.0000
 20
0.0000
 30
0.0000
 40
0.1524
 41
0.1524
 70
0
  0
VERTEX
  8
91
 10
127.0000
 20
2.5400
 30
0.0000
  0
VERTEX
  8
91
 10
127.0000
 20
76.2000
 30
0.0000
  0
SEQEND
  8
0
  0
POLYLINE
  8
91
 66
1
 10
0.0000
 20
0.0000
 30
0.0000
 40
0.0762
 41
0.0762
 70
0
  0
VERTEX
  8
91
 10
127.0381
 20
76.2000
 30
0.0000
 42
1.0000
  0
VERTEX
  8
91
 10
126.9619
 20
76.2000
 30
0.0000
  0
SEQEND
  8
0
  0
POLYLINE
  8
91
 66
1
 10
0.0000
 20
0.0000
 30
0.0000
 40
0.0762
 41
0.0762
 70
0
  0
VERTEX
  8
91
 10
126.9619
 20
2.5400
 30
0.0000
 42
1.0000
  0
VERTEX
  8
91
 10
127.0381
 20
2.5400
 30
0.0000
  0
SEQEND
  8
0
  0
POLYLINE
  8
91
 66
1
 10
0.0000
 20
0.0000
 30
0.0000
 40
0.1524
 41
0.1524
 70
0
  0
VERTEX
  8
91
 10
127.0000
 20
76.2000
 30
0.0000
  0
VERTEX
  8
91
 10
30.4800
 20
76.2000
 30
0.0000
  0
SEQEND
  8
0
  0
POLYLINE
  8
91
 66
1
 10
0.0000
 20
0.0000
 30
0.0000
 40
0.0762
 41
0.0762
 70
0
  0
VERTEX
  8
91
 10
30.4800
 20
76.2381
 30
0.0000
 42
1.0000
  0
VERTEX
  8
91
 10
30.4800
 20
76.1619
 30
0.0000
  0
SEQEND
  8
0
  0
POLYLINE
  8
91
 66
1
 10
0.0000
 20
0.0000
 30
0.0000
 40
0.0762
 41
0.0762
 70
0
  0
VERTEX
  8
91
 10
127.0000
 20
76.1619
 30
0.0000
 42
1.0000
  0
VERTEX
  8
91
 10
127.0000
 20
76.2381
 30
0.0000
  0
SEQEND
  8
0
  0
POLYLINE
  8
91
 66
1
 10
0.0000
 20
0.0000
 30
0.0000
 40
0.1524
 41
0.1524
 70
0
  0
VERTEX
  8
91
 10
30.4800
 20
76.2000
 30
0.0000
  0
VERTEX
  8
91
 10
30.4800
 20
5.0800
 30
0.0000
  0
SEQEND
  8
0
  0
POLYLINE
  8
91
 66
1
 10
0.0000
 20
0.0000
 30
0.0000
 40
0.0762
 41
0.0762
 70
0
  0
VERTEX
  8
91
 10
30.4419
 20
5.0800
 30
0.0000
 42
1.0000
  0
VERTEX
  8
91
 10
30.5181
 20
5.0800
 30
0.0000
  0
SEQEND
  8
0
  0
POLYLINE
  8
91
 66
1
 10
0.0000
 20
0.0000
 30
0.0000
 40
0.0762
 41
0.0762
 70
0
  0
VERTEX
  8
91
 10
30.5181
 20
76.2000
 30
0.0000
 42
1.0000
  0
VERTEX
  8
91
 10
30.4419
 20
76.2000
 30
0.0000
  0
SEQEND
  8
0
  0
POLYLINE
  8
91
 66
1
 10
0.0000
 20
0.0000
 30
0.0000
 40
0.1524
 41
0.1524
 70
0
  0
VERTEX
  8
91
 10
30.4800
 20
5.0800
 30
0.0000
  0
VERTEX
  8
91
 10
124.4600
 20
5.0800
 30
0.0000
  0
SEQEND
  8
0
  0
POLYLINE
  8
91
 66
1
 10
0.0000
 20
0.0000
 30
0.0000
 40
0.0762
 41
0.0762
 70
0
  0
VERTEX
  8
91
 10
124.4600
 20
5.0419
 30
0.0000
 42
1.0000
  0
VERTEX
  8
91
 10
124.4600
 20
5.1181
 30
0.0000
  0
SEQEND
  8
0
  0
POLYLINE
  8
91
 66
1
 10
0.0000
 20
0.0000
 30
0.0000
 40
0.0762
 41
0.0762
 70
0
  0
VERTEX
  8
91
 10
30.4800
 20
5.1181
 30
0.0000
 42
1.0000
  0
VERTEX
  8
91
 10
30.4800
 20
5.0419
 30
0.0000
  0
SEQEND
  8
0
  0
POLYLINE
  8
91
 66
1
 10
0.0000
 20
0.0000
 30
0.0000
 40
0.1524
 41
0.1524
 70
0
  0
VERTEX
  8
91
 10
124.4600
 20
5.0800
 30
0.0000
  0
VERTEX
  8
91
 10
124.4600
 20
73.6600
 30
0.0000
  0
SEQEND
  8
0
  0
POLYLINE
  8
91
 66
1
 10
0.0000
 20
0.0000
 30
0.0000
 40
0.0762
 41
0.0762
 70
0
  0
VERTEX
  8
91
 10
124.4981
 20
73.6600
 30
0.0000
 42
1.0000
  0
VERTEX
  8
91
 10
124.4219
 20
73.6600
 30
0.0000
  0
SEQEND
  8
0
  0
POLYLINE
  8
91
 66
1
 10
0.0000
 20
0.0000
 30
0.0000
 40
0.0762
 41
0.0762
 70
0
  0
VERTEX
  8
91
 10
124.4219
 20
5.0800
 30
0.0000
 42
1.0000
  0
VERTEX
  8
91
 10
124.4981
 20
5.0800
 30
0.0000
  0
SEQEND
  8
0
  0
POLYLINE
  8
91
 66
1
 10
0.0000
 20
0.0000
 30
0.0000
 40
0.1524
 41
0.1524
 70
0
  0
VERTEX
  8
91
 10
124.4600
 20
73.6600
 30
0.0000
  0
VERTEX
  8
91
 10
33.0200
 20
73.6600
 30
0.0000
  0
SEQEND
  8
0
  0
POLYLINE
  8
91
 66
1
 10
0.0000
 20
0.0000
 30
0.0000
 40
0.0762
 41
0.0762
 70
0
  0
VERTEX
  8
91
 10
33.0200
 20
73.6981
 30
0.0000
 42
1.0000
  0
VERTEX
  8
91
 10
33.0200
 20
73.6219
 30
0.0000
  0
SEQEND
  8
0
  0
POLYLINE
  8
91
 66
1
 10
0.0000
 20
0.0000
 30
0.0000
 40
0.0762
 41
0.0762
 70
0
  0
VERTEX
  8
91
 10
124.4600
 20
73.6219
 30
0.0000
 42
1.0000
  0
VERTEX
  8
91
 10
124.4600
 20
73.6981
 30
0.0000
  0
SEQEND
  8
0
  0
POLYLINE
  8
91
 66
1
 10
0.0000
 20
0.0000
 30
0.0000
 40
0.1524
 41
0.1524
 70
0
  0
VERTEX
  8
91
 10
33.0200
 20
73.6600
 30
0.0000
  0
VERTEX
  8
91
 10
33.0200
 20
7.6200
 30
0.0000
  0
SEQEND
  8
0
  0
POLYLINE
  8
91
 66
1
 10
0.0000
 20
0.0000
 30
0.0000
 40
0.0762
 41
0.0762
 70
0
  0
VERTEX
  8
91
 10
32.9819
 20
7.6200
 30
0.0000
 42
1.0000
  0
VERTEX
  8
91
 10
33.0581
 20
7.6200
 30
0.0000
  0
SEQEND
  8
0
  0
POLYLINE
  8
91
 66
1
 10
0.0000
 20
0.0000
 30
0.0000
 40
0.0762
 41
0.0762
 70
0
  0
VERTEX
  8
91
 10
33.0581
 20
73.6600
 30
0.0000
 42
1.0000
  0
VERTEX
  8
91
 10
32.9819
 20
73.6600
 30
0.0000
  0
SEQEND
  8
0
  0
POLYLINE
  8
91
 66
1
 10
0.0000
 20
0.0000
 30
0.0000
 40
0.1524
 41
0.1524
 70
0
  0
VERTEX
  8
91
 10
33.0200
 20
7.6200
 30
0.0000
  0
VERTEX
  8
91
 10
121.9200
 20
7.6200
 30
0.0000
  0
SEQEND
  8
0
  0
POLYLINE
  8
91
 66
1
 10
0.0000
 20
0.0000
 30
0.0000
 40
0.0762
 41
0.0762
 70
0
  0
VERTEX
  8
91
 10
121.9200
 20
7.5819
 30
0.0000
 42
1.0000
  0
VERTEX
  8
91
 10
121.9200
 20
7.6581
 30
0.0000
  0
SEQEND
  8
0
  0
POLYLINE
  8
91
 66
1
 10
0.0000
 20
0.0000
 30
0.0000
 40
0.0762
 41
0.0762
 70
0
  0
VERTEX
  8
91
 10
33.0200
 20
7.6581
 30
0.0000
 42
1.0000
  0
VERTEX
  8
91
 10
33.0200
 20
7.5819
 30
0.0000
  0
SEQEND
  8
0
  0
POLYLINE
  8
91
 66
1
 10
0.0000
 20
0.0000
 30
0.0000
 40
0.1524
 41
0.1524
 70
0
  0
VERTEX
  8
91
 10
121.9200
 20
7.6200
 30
0.0000
  0
VERTEX
  8
91
 10
121.9200
 20
71.1200
 30
0.0000
  0
SEQEND
  8
0
  0
POLYLINE
  8
91
 66
1
 10
0.0000
 20
0.0000
 30
0.0000
 40
0.0762
 41
0.0762
 70
0
  0
VERTEX
  8
91
 10
121.9581
 20
71.1200
 30
0.0000
 42
1.0000
  0
VERTEX
  8
91
 10
121.8819
 20
71.1200
 30
0.0000
  0
SEQEND
  8
0
  0
POLYLINE
  8
91
 66
1
 10
0.0000
 20
0.0000
 30
0.0000
 40
0.0762
 41
0.0762
 70
0
  0
VERTEX
  8
91
 10
121.8819
 20
7.6200
 30
0.0000
 42
1.0000
  0
VERTEX
  8
91
 10
121.9581
 20
7.6200
 30
0.0000
  0
SEQEND
  8
0
  0
POLYLINE
  8
91
 66
1
 10
0.0000
 20
0.0000
 30
0.0000
 40
0.1524
 41
0.1524
 70
0
  0
VERTEX
  8
91
 10
121.9200
 20
71.1200
 30
0.0000
  0
VERTEX
  8
91
 10
35.5600
 20
71.1200
 30
0.0000
  0
SEQEND
  8
0
  0
POLYLINE
  8
91
 66
1
 10
0.0000
 20
0.0000
 30
0.0000
 40
0.0762
 41
0.0762
 70
0
  0
VERTEX
  8
91
 10
35.5600
 20
71.1581
 30
0.0000
 42
1.0000
  0
VERTEX
  8
91
 10
35.5600
 20
71.0819
 30
0.0000
  0
SEQEND
  8
0
  0
POLYLINE
  8
91
 66
1
 10
0.0000
 20
0.0000
 30
0.0000
 40
0.0762
 41
0.0762
 70
0
  0
VERTEX
  8
91
 10
121.9200
 20
71.0819
 30
0.0000
 42
1.0000
  0
VERTEX
  8
91
 10
121.9200
 20
71.1581
 30
0.0000
  0
SEQEND
  8
0
  0
POLYLINE
  8
91
 66
1
 10
0.0000
 20
0.0000
 30
0.0000
 40
0.1524
 41
0.1524
 70
0
  0
VERTEX
  8
91
 10
35.5600
 20
71.1200
 30
0.0000
  0
VERTEX
  8
91
 10
35.5600
 20
10.1600
 30
0.0000
  0
SEQEND
  8
0
  0
POLYLINE
  8
91
 66
1
 10
0.0000
 20
0.0000
 30
0.0000
 40
0.0762
 41
0.0762
 70
0
  0
VERTEX
  8
91
 10
35.5219
 20
10.1600
 30
0.0000
 42
1.0000
  0
VERTEX
  8
91
 10
35.5981
 20
10.1600
 30
0.0000
  0
SEQEND
  8
0
  0
POLYLINE
  8
91
 66
1
 10
0.0000
 20
0.0000
 30
0.0000
 40
0.0762
 41
0.0762
 70
0
  0
VERTEX
  8
91
 10
35.5981
 20
71.1200
 30
0.0000
 42
1.0000
  0
VERTEX
  8
91
 10
35.5219
 20
71.1200
 30
0.0000
  0
SEQEND
  8
0
  0
POLYLINE
  8
91
 66
1
 10
0.0000
 20
0.0000
 30
0.0000
 40
0.1524
 41
0.1524
 70
0
  0
VERTEX
  8
91
 10
35.5600
 20
10.1600
 30
0.0000
  0
VERTEX
  8
91
 10
119.3800
 20
10.1600
 30
0.0000
  0
SEQEND
  8
0
  0
POLYLINE
  8
91
 66
1
 10
0.0000
 20
0.0000
 30
0.0000
 40
0.0762
 41
0.0762
 70
0
  0
VERTEX
  8
91
 10
119.3800
 20
10.1219
 30
0.0000
 42
1.0000
  0
VERTEX
  8
91
 10
119.3800
 20
10.1981
 30
0.0000
  0
SEQEND
  8
0
  0
POLYLINE
  8
91
 66
1
 10
0.0000
 20
0.0000
 30
0.0000
 40
0.0762
 41
0.0762
 70
0
  0
VERTEX
  8
91
 10
35.5600
 20
10.1981
 30
0.0000
 42
1.0000
  0
VERTEX
  8
91
 10
35.5600
 20
10.1219
 30
0.0000
  0
SEQEND
  8
0
  0
POLYLINE
  8
91
 66
1
 10
0.0000
 20
0.0000
 30
0.0000
 40
0.1524
 41
0.1524
 70
0
  0
VERTEX
  8
91
 10
119.3800
 20
10.1600
 30
0.0000
  0
VERTEX
  8
91
 10
119.3800
 20
68.5800
 30
0.0000
  0
SEQEND
  8
0
  0
POLYLINE
  8
91
 66
1
 10
0.0000
 20
0.0000
 30
0.0000
 40
0.0762
 41
0.0762
 70
0
  0
VERTEX
  8
91
 10
119.4181
 20
68.5800
 30
0.0000
 42
1.0000
  0
VERTEX
  8
91
 10
119.3419
 20
68.5800
 30
0.0000
  0
SEQEND
  8
0
  0
POLYLINE
  8
91
 66
1
 10
0.0000
 20
0.0000
 30
0.0000
 40
0.0762
 41
0.0762
 70
0
  0
VERTEX
  8
91
 10
119.3419
 20
10.1600
 30
0.0000
 42
1.0000
  0
VERTEX
  8
91
 10
119.4181
 20
10.1600
 30
0.0000
  0
SEQEND
  8
0
  0
POLYLINE
  8
91
 66
1
 10
0.0000
 20
0.0000
 30
0.0000
 40
0.1524
 41
0.1524
 70
0
  0
VERTEX
  8
91
 10
119.3800
 20
68.5800
 30
0.0000
  0
VERTEX
  8
91
 10
38.1000
 20
68.5800
 30
0.0000
  0
SEQEND
  8
0
  0
POLYLINE
  8
91
 66
1
 10
0.0000
 20
0.0000
 30
0.0000
 40
0.0762
 41
0.0762
 70
0
  0
VERTEX
  8
91
 10
38.1000
 20
68.6181
 30
0.0000
 42
1.0000
  0
VERTEX
  8
91
 10
38.1000
 20
68.5419
 30
0.0000
  0
SEQEND
  8
0
  0
POLYLINE
  8
91
 66
1
 10
0.0000
 20
0.0000
 30
0.0000
 40
0.0762
 41
0.0762
 70
0
  0
VERTEX
  8
91
 10
119.3800
 20
68.5419
 30
0.0000
 42
1.0000
  0
VERTEX
  8
91
 10
119.3800
 20
68.6181
 30
0.0000
  0
SEQEND
  8
0
  0
POLYLINE
  8
91
 66
1
 10
0.0000
 20
0.0000
 30
0.0000
 40
0.1524
 41
0.1524
 70
0
  0
VERTEX
  8
91
 10
38.1000
 20
68.5800
 30
0.0000
  0
VERTEX
  8
91
 10
38.1000
 20
12.7000
 30
0.0000
  0
SEQEND
  8
0
  0
POLYLINE
  8
91
 66
1
 10
0.0000
 20
0.0000
 30
0.0000
 40
0.0762
 41
0.0762
 70
0
  0
VERTEX
  8
91
 10
38.0619
 20
12.7000
 30
0.0000
 42
1.0000
  0
VERTEX
  8
91
 10
38.1381
 20
12.7000
 30
0.0000
  0
SEQEND
  8
0
  0
POLYLINE
  8
91
 66
1
 10
0.0000
 20
0.0000
 30
0.0000
 40
0.0762
 41
0.0762
 70
0
  0
VERTEX
  8
91
 10
38.1381
 20
68.5800
 30
0.0000
 42
1.0000
  0
VERTEX
  8
91
 10
38.0619
 20
68.5800
 30
0.0000
  0
SEQEND
  8
0
  0
POLYLINE
  8
91
 66
1
 10
0.0000
 20
0.0000
 30
0.0000
 40
0.1524
 41
0.1524
 70
0
  0
VERTEX
  8
91
 10
38.1000
 20
12.7000
 30
0.0000
  0
VERTEX
  8
91
 10
116.8400
 20
12.7000
 30
0.0000
  0
SEQEND
  8
0
  0
POLYLINE
  8
91
 66
1
 10
0.0000
 20
0.0000
 30
0.0000
 40
0.0762
 41
0.0762
 70
0
  0
VERTEX
  8
91
 10
116.8400
 20
12.6619
 30
0.0000
 42
1.0000
  0
VERTEX
  8
91
 10
116.8400
 20
12.7381
 30
0.0000
  0
SEQEND
  8
0
  0
POLYLINE
  8
91
 66
1
 10
0.0000
 20
0.0000
 30
0.0000
 40
0.0762
 41
0.0762
 70
0
  0
VERTEX
  8
91
 10
38.1000
 20
12.7381
 30
0.0000
 42
1.0000
  0
VERTEX
  8
91
 10
38.1000
 20
12.6619
 30
0.0000
  0
SEQEND
  8
0
  0
POLYLINE
  8
91
 66
1
 10
0.0000
 20
0.0000
 30
0.0000
 40
0.1524
 41
0.1524
 70
0
  0
VERTEX
  8
91
 10
116.8400
 20
12.7000
 30
0.0000
  0
VERTEX
  8
91
 10
116.8400
 20
66.0400
 30
0.0000
  0
SEQEND
  8
0
  0
POLYLINE
  8
91
 66
1
 10
0.0000
 20
0.0000
 30
0.0000
 40
0.0762
 41
0.0762
 70
0
  0
VERTEX
  8
91
 10
116.8781
 20
66.0400
 30
0.0000
 42
1.0000
  0
VERTEX
  8
91
 10
116.8019
 20
66.0400
 30
0.0000
  0
SEQEND
  8
0
  0
POLYLINE
  8
91
 66
1
 10
0.0000
 20
0.0000
 30
0.0000
 40
0.0762
 41
0.0762
 70
0
  0
VERTEX
  8
91
 10
116.8019
 20
12.7000
 30
0.0000
 42
1.0000
  0
VERTEX
  8
91
 10
116.8781
 20
12.7000
 30
0.0000
  0
SEQEND
  8
0
  0
POLYLINE
  8
91
 66
1
 10
0.0000
 20
0.0000
 30
0.0000
 40
0.1524
 41
0.1524
 70
0
  0
VERTEX
  8
91
 10
116.8400
 20
66.0400
 30
0.0000
  0
VERTEX
  8
91
 10
40.6400
 20
66.0400
 30
0.0000
  0
SEQEND
  8
0
  0
POLYLINE
  8
91
 66
1
 10
0.0000
 20
0.0000
 30
0.0000
 40
0.0762
 41
0.0762
 70
0
  0
VERTEX
  8
91
 10
40.6400
 20
66.0781
 30
0.0000
 42
1.0000
  0
VERTEX
  8
91
 10
40.6400
 20
66.0019
 30
0.0000
  0
SEQEND
  8
0
  0
POLYLINE
  8
91
 66
1
 10
0.0000
 20
0.0000
 30
0.0000
 40
0.0762
 41
0.0762
 70
0
  0
VERTEX
  8
91
 10
116.8400
 20
66.0019
 30
0.0000
 42
1.0000
  0
VERTEX
  8
91
 10
116.8400
 20
66.0781
 30
0.0000
  0
SEQEND
  8
0
  0
POLYLINE
  8
91
 66
1
 10
0.0000
 20
0.0000
 30
0.0000
 40
0.1524
 41
0.1524
 70
0
  0
VERTEX
  8
91
 10
40.6400
 20
66.0400
 30
0.0000
  0
VERTEX
  8
91
 10
40.6400
 20
15.2400
 30
0.0000
  0
SEQEND
  8
0
  0
POLYLINE
  8
91
 66
1
 10
0.0000
 20
0.0000
 30
0.0000
 40
0.0762
 41
0.0762
 70
0
  0
VERTEX
  8
91
 10
40.6019
 20
15.2400
 30
0.0000
 42
1.0000
  0
VERTEX
  8
91
 10
40.6781
 20
15.2400
 30
0.0000
  0
SEQEND
  8
0
  0
POLYLINE
  8
91
 66
1
 10
0.0000
 20
0.0000
 30
0.0000
 40
0.0762
 41
0.0762
 70
0
  0
VERTEX
  8
91
 10
40.6781
 20
66.0400
 30
0.0000
 42
1.0000
  0
VERTEX
  8
91
 10
40.6019
 20
66.0400
 30
0.0000
  0
SEQEND
  8
0
  0
POLYLINE
  8
91
 66
1
 10
0.0000
 20
0.0000
 30
0.0000
 40
0.1524
 41
0.1524
 70
0
  0
VERTEX
  8
91
 10
40.6400
 20
15.2400
 30
0.0000
  0
VERTEX
  8
91
 10
114.3000
 20
15.2400
 30
0.0000
  0
SEQEND
  8
0
  0
POLYLINE
  8
91
 66
1
 10
0.0000
 20
0.0000
 30
0.0000
 40
0.0762
 41
0.0762
 70
0
  0
VERTEX
  8
91
 10
114.3000
 20
15.2019
 30
0.0000
 42
1.0000
  0
VERTEX
  8
91
 10
114.3000
 20
15.2781
 30
0.0000
  0
SEQEND
  8
0
  0
POLYLINE
  8
91
 66
1
 10
0.0000
 20
0.0000
 30
0.0000
 40
0.0762
 41
0.0762
 70
0
  0
VERTEX
  8
91
 10
40.6400
 20
15.2781
 30
0.0000
 42
1.0000
  0
VERTEX
  8
91
 10
40.6400
 20
15.2019
 30
0.0000
  0
SEQEND
  8
0
  0
POLYLINE
  8
91
 66
1
 10
0.0000
 20
0.0000
 30
0.0000
 40
0.1524
 41
0.1524
 70
0
  0
VERTEX
  8
91
 10
114.3000
 20
15.2400
 30
0.0000
  0
VERTEX
  8
91
 10
114.3000
 20
63.5000
 30
0.0000
  0
SEQEND
  8
0
  0
POLYLINE
  8
91
 66
1
 10
0.0000
 20
0.0000
 30
0.0000
 40
0.0762
 41
0.0762
 70
0
  0
VERTEX
  8
91
 10
114.3381
 20
63.5000
 30
0.0000
 42
1.0000
  0
VERTEX
  8
91
 10
114.2619
 20
63.5000
 30
0.0000
  0
SEQEND
  8
0
  0
POLYLINE
  8
91
 66
1
 10
0.0000
 20
0.0000
 30
0.0000
 40
0.0762
 41
0.0762
 70
0
  0
VERTEX
  8
91
 10
114.2619
 20
15.2400
 30
0.0000
 42
1.0000
  0
VERTEX
  8
91
 10
114.3381
 20
15.2400
 30
0.0000
  0
SEQEND
  8
0
  0
POLYLINE
  8
91
 66
1
 10
0.0000
 20
0.0000
 30
0.0000
 40
0.1524
 41
0.1524
 70
0
  0
VERTEX
  8
91
 10
114.3000
 20
63.5000
 30
0.0000
  0
VERTEX
  8
91
 10
43.1800
 20
63.5000
 30
0.0000
  0
SEQEND
  8
0
  0
POLYLINE
  8
91
 66
1
 10
0.0000
 20
0.0000
 30
0.0000
 40
0.0762
 41
0.0762
 70
0
  0
VERTEX
  8
91
 10
43.1800
 20
63.5381
 30
0.0000
 42
1.0000
  0
VERTEX
  8
91
 10
43.1800
 20
63.4619
 30
0.0000
  0
SEQEND
  8
0
  0
POLYLINE
  8
91
 66
1
 10
0.0000
 20
0.0000
 30
0.0000
 40
0.0762
 41
0.0762
 70
0
  0
VERTEX
  8
91
 10
114.3000
 20
63.4619
 30
0.0000
 42
1.0000
  0
VERTEX
  8
91
 10
114.3000
 20
63.5381
 30
0.0000
  0
SEQEND
  8
0
  0
POLYLINE
  8
91
 66
1
 10
0.0000
 20
0.0000
 30
0.0000
 40
0.1524
 41
0.1524
 70
0
  0
VERTEX
  8
91
 10
43.1800
 20
63.5000
 30
0.0000
  0
VERTEX
  8
91
 10
43.1800
 20
17.7800
 30
0.0000
  0
SEQEND
  8
0
  0
POLYLINE
  8
91
 66
1
 10
0.0000
 20
0.0000
 30
0.0000
 40
0.0762
 41
0.0762
 70
0
  0
VERTEX
  8
91
 10
43.1419
 20
17.7800
 30
0.0000
 42
1.0000
  0
VERTEX
  8
91
 10
43.2181
 20
17.7800
 30
0.0000
  0
SEQEND
  8
0
  0
POLYLINE
  8
91
 66
1
 10
0.0000
 20
0.0000
 30
0.0000
 40
0.0762
 41
0.0762
 70
0
  0
VERTEX
  8
91
 10
43.2181
 20
63.5000
 30
0.0000
 42
1.0000
  0
VERTEX
  8
91
 10
43.1419
 20
63.5000
 30
0.0000
  0
SEQEND
  8
0
  0
POLYLINE
  8
91
 66
1
 10
0.0000
 20
0.0000
 30
0.0000
 40
0.1524
 41
0.1524
 70
0
  0
VERTEX
  8
91
 10
43.1800
 20
17.7800
 30
0.0000
  0
VERTEX
  8
91
 10
111.7600
 20
17.7800
 30
0.0000
  0
SEQEND
  8
0
  0
POLYLINE
  8
91
 66
1
 10
0.0000
 20
0.0000
 30
0.0000
 40
0.0762
 41
0.0762
 70
0
  0
VERTEX
  8
91
 10
111.7600
 20
17.7419
 30
0.0000
 42
1.0000
  0
VERTEX
  8
91
 10
111.7600
 20
17.8181
 30
0.0000
  0
SEQEND
  8
0
  0
POLYLINE
  8
91
 66
1
 10
0.0000
 20
0.0000
 30
0.0000
 40
0.0762
 41
0.0762
 70
0
  0
VERTEX
  8
91
 10
43.1800
 20
17.8181
 30
0.0000
 42
1.0000
  0
VERTEX
  8
91
 10
43.1800
 20
17.7419
 30
0.0000
  0
SEQEND
  8
0
  0
POLYLINE
  8
91
 66
1
 10
0.0000
 20
0.0000
 30
0.0000
 40
0.1524
 41
0.1524
 70
0
  0
VERTEX
  8
91
 10
111.7600
 20
17.7800
 30
0.0000
  0
VERTEX
  8
91
 10
111.7600
 20
60.9600
 30
0.0000
  0
SEQEND
  8
0
  0
POLYLINE
  8
91
 66
1
 10
0.0000
 20
0.0000
 30
0.0000
 40
0.0762
 41
0.0762
 70
0
  0
VERTEX
  8
91
 10
111.7981
 20
60.9600
 30
0.0000
 42
1.0000
  0
VERTEX
  8
91
 10
111.7219
 20
60.9600
 30
0.0000
  0
SEQEND
  8
0
  0
POLYLINE
  8
91
 66
1
 10
0.0000
 20
0.0000
 30
0.0000
 40
0.0762
 41
0.0762
 70
0
  0
VERTEX
  8
91
 10
111.7219
 20
17.7800
 30
0.0000
 42
1.0000
  0
VERTEX
  8
91
 10
111.7981
 20
17.7800
 30
0.0000
  0
SEQEND
  8
0
  0
POLYLINE
  8
91
 66
1
 10
0.0000
 20
0.0000
 30
0.0000
 40
0.1524
 41
0.1524
 70
0
  0
VERTEX
  8
91
 10
111.7600
 20
60.9600
 30
0.0000
  0
VERTEX
  8
91
 10
45.7200
 20
60.9600
 30
0.0000
  0
SEQEND
  8
0
  0
POLYLINE
  8
91
 66
1
 10
0.0000
 20
0.0000
 30
0.0000
 40
0.0762
 41
0.0762
 70
0
  0
VERTEX
  8
91
 10
45.7200
 20
60.9981
 30
0.0000
 42
1.0000
  0
VERTEX
  8
91
 10
45.7200
 20
60.9219
 30
0.0000
  0
SEQEND
  8
0
  0
POLYLINE
  8
91
 66
1
 10
0.0000
 20
0.0000
 30
0.0000
 40
0.0762
 41
0.0762
 70
0
  0
VERTEX
  8
91
 10
111.7600
 20
60.9219
 30
0.0000
 42
1.0000
  0
VERTEX
  8
91
 10
111.7600
 20
60.9981
 30
0.0000
  0
SEQEND
  8
0
  0
POLYLINE
  8
91
 66
1
 10
0.0000
 20
0.0000
 30
0.0000
 40
0.1524
 41
0.1524
 70
0
  0
VERTEX
  8
91
 10
45.7200
 20
60.9600
 30
0.0000
  0
VERTEX
  8
91
 10
45.7200
 20
20.3200
 30
0.0000
  0
SEQEND
  8
0
  0
POLYLINE
  8
91
 66
1
 10
0.0000
 20
0.0000
 30
0.0000
 40
0.0762
 41
0.0762
 70
0
  0
VERTEX
  8
91
 10
45.6819
 20
20.3200
 30
0.0000
 42
1.0000
  0
VERTEX
  8
91
 10
45.7581
 20
20.3200
 30
0.0000
  0
SEQEND
  8
0
  0
POLYLINE
  8
91
 66
1
 10
0.0000
 20
0.0000
 30
0.0000
 40
0.0762
 41
0.0762
 70
0
  0
VERTEX
  8
91
 10
45.7581
 20
60.9600
 30
0.0000
 42
1.0000
  0
VERTEX
  8
91
 10
45.6819
 20
60.9600
 30
0.0000
  0
SEQEND
  8
0
  0
POLYLINE
  8
91
 66
1
 10
0.0000
 20
0.0000
 30
0.0000
 40
0.1524
 41
0.1524
 70
0
  0
VERTEX
  8
91
 10
45.7200
 20
20.3200
 30
0.0000
  0
VERTEX
  8
91
 10
109.2200
 20
20.3200
 30
0.0000
  0
SEQEND
  8
0
  0
POLYLINE
  8
91
 66
1
 10
0.0000
 20
0.0000
 30
0.0000
 40
0.0762
 41
0.0762
 70
0
  0
VERTEX
  8
91
 10
109.2200
 20
20.2819
 30
0.0000
 42
1.0000
  0
VERTEX
  8
91
 10
109.2200
 20
20.3581
 30
0.0000
  0
SEQEND
  8
0
  0
POLYLINE
  8
91
 66
1
 10
0.0000
 20
0.0000
 30
0.0000
 40
0.0762
 41
0.0762
 70
0
  0
VERTEX
  8
91
 10
45.7200
 20
20.3581
 30
0.0000
 42
1.0000
  0
VERTEX
  8
91
 10
45.7200
 20
20.2819
 30
0.0000
  0
SEQEND
  8
0
  0
POLYLINE
  8
91
 66
1
 10
0.0000
 20
0.0000
 30
0.0000
 40
0.1524
 41
0.1524
 70
0
  0
VERTEX
  8
91
 10
109.2200
 20
20.3200
 30
0.0000
  0
VERTEX
  8
91
 10
109.2200
 20
58.4200
 30
0.0000
  0
SEQEND
  8
0
  0
POLYLINE
  8
91
 66
1
 10
0.0000
 20
0.0000
 30
0.0000
 40
0.0762
 41
0.0762
 70
0
  0
VERTEX
  8
91
 10
109.2581
 20
58.4200
 30
0.0000
 42
1.0000
  0
VERTEX
  8
91
 10
109.1819
 20
58.4200
 30
0.0000
  0
SEQEND
  8
0
  0
POLYLINE
  8
91
 66
1
 10
0.0000
 20
0.0000
 30
0.0000
 40
0.0762
 41
0.0762
 70
0
  0
VERTEX
  8
91
 10
109.1819
 20
20.3200
 30
0.0000
 42
1.0000
  0
VERTEX
  8
91
 10
109.2581
 20
20.3200
 30
0.0000
  0
SEQEND
  8
0
  0
POLYLINE
  8
91
 66
1
 10
0.0000
 20
0.0000
 30
0.0000
 40
0.1524
 41
0.1524
 70
0
  0
VERTEX
  8
91
 10
109.2200
 20
58.4200
 30
0.0000
  0
VERTEX
  8
91
 10
48.2600
 20
58.4200
 30
0.0000
  0
SEQEND
  8
0
  0
POLYLINE
  8
91
 66
1
 10
0.0000
 20
0.0000
 30
0.0000
 40
0.0762
 41
0.0762
 70
0
  0
VERTEX
  8
91
 10
48.2600
 20
58.4581
 30
0.0000
 42
1.0000
  0
VERTEX
  8
91
 10
48.2600
 20
58.3819
 30
0.0000
  0
SEQEND
  8
0
  0
POLYLINE
  8
91
 66
1
 10
0.0000
 20
0.0000
 30
0.0000
 40
0.0762
 41
0.0762
 70
0
  0
VERTEX
  8
91
 10
109.2200
 20
58.3819
 30
0.0000
 42
1.0000
  0
VERTEX
  8
91
 10
109.2200
 20
58.4581
 30
0.0000
  0
SEQEND
  8
0
  0
POLYLINE
  8
91
 66
1
 10
0.0000
 20
0.0000
 30
0.0000
 40
0.1524
 41
0.1524
 70
0
  0
VERTEX
  8
91
 10
48.2600
 20
58.4200
 30
0.0000
  0
VERTEX
  8
91
 10
48.2600
 20
22.8600
 30
0.0000
  0
SEQEND
  8
0
  0
POLYLINE
  8
91
 66
1
 10
0.0000
 20
0.0000
 30
0.0000
 40
0.0762
 41
0.0762
 70
0
  0
VERTEX
  8
91
 10
48.2219
 20
22.8600
 30
0.0000
 42
1.0000
  0
VERTEX
  8
91
 10
48.2981
 20
22.8600
 30
0.0000
  0
SEQEND
  8
0
  0
POLYLINE
  8
91
 66
1
 10
0.0000
 20
0.0000
 30
0.0000
 40
0.0762
 41
0.0762
 70
0
  0
VERTEX
  8
91
 10
48.2981
 20
58.4200
 30
0.0000
 42
1.0000
  0
VERTEX
  8
91
 10
48.2219
 20
58.4200
 30
0.0000
  0
SEQEND
  8
0
  0
POLYLINE
  8
91
 66
1
 10
0.0000
 20
0.0000
 30
0.0000
 40
0.1524
 41
0.1524
 70
0
  0
VERTEX
  8
91
 10
48.2600
 20
22.8600
 30
0.0000
  0
VERTEX
  8
91
 10
106.6800
 20
22.8600
 30
0.0000
  0
SEQEND
  8
0
  0
POLYLINE
  8
91
 66
1
 10
0.0000
 20
0.0000
 30
0.0000
 40
0.0762
 41
0.0762
 70
0
  0
VERTEX
  8
91
 10
106.6800
 20
22.8219
 30
0.0000
 42
1.0000
  0
VERTEX
  8
91
 10
106.6800
 20
22.8981
 30
0.0000
  0
SEQEND
  8
0
  0
POLYLINE
  8
91
 66
1
 10
0.0000
 20
0.0000
 30
0.0000
 40
0.0762
 41
0.0762
 70
0
  0
VERTEX
  8
91
 10
48.2600
 20
22.8981
 30
0.0000
 42
1.0000
  0
VERTEX
  8
91
 10
48.2600
 20
22.8219
 30
0.0000
  0
SEQEND
  8
0
  0
POLYLINE
  8
91
 66
1
 10
0.0000
 20
0.0000
 30
0.0000
 40
0.1524
 41
0.1524
 70
0
  0
VERTEX
  8
91
 10
106.6800
 20
22.8600
 30
0.0000
  0
VERTEX
  8
91
 10
106.6800
 20
55.8800
 30
0.0000
  0
SEQEND
  8
0
  0
POLYLINE
  8
91
 66
1
 10
0.0000
 20
0.0000
 30
0.0000
 40
0.0762
 41
0.0762
 70
0
  0
VERTEX
  8
91
 10
106.7181
 20
55.8800
 30
0.0000
 42
1.0000
  0
VERTEX
  8
91
 10
106.6419
 20
55.8800
 30
0.0000
  0
SEQEND
  8
0
  0
POLYLINE
  8
91
 66
1
 10
0.0000
 20
0.0000
 30
0.0000
 40
0.0762
 41
0.0762
 70
0
  0
VERTEX
  8
91
 10
106.6419
 20
22.8600
 30
0.0000
 42
1.0000
  0
VERTEX
  8
91
 10
106.7181
 20
22.8600
 30
0.0000
  0
SEQEND
  8
0
  0
POLYLINE
  8
91
 66
1
 10
0.0000
 20
0.0000
 30
0.0000
 40
0.1524
 41
0.1524
 70
0
  0
VERTEX
  8
91
 10
106.6800
 20
55.8800
 30
0.0000
  0
VERTEX
  8
91
 10
50.8000
 20
55.8800
 30
0.0000
  0
SEQEND
  8
0
  0
POLYLINE
  8
91
 66
1
 10
0.0000
 20
0.0000
 30
0.0000
 40
0.0762
 41
0.0762
 70
0
  0
VERTEX
  8
91
 10
50.8000
 20
55.9181
 30
0.0000
 42
1.0000
  0
VERTEX
  8
91
 10
50.8000
 20
55.8419
 30
0.0000
  0
SEQEND
  8
0
  0
POLYLINE
  8
91
 66
1
 10
0.0000
 20
0.0000
 30
0.0000
 40
0.0762
 41
0.0762
 70
0
  0
VERTEX
  8
91
 10
106.6800
 20
55.8419
 30
0.0000
 42
1.0000
  0
VERTEX
  8
91
 10
106.6800
 20
55.9181
 30
0.0000
  0
SEQEND
  8
0
  0
POLYLINE
  8
91
 66
1
 10
0.0000
 20
0.0000
 30
0.0000
 40
0.1524
 41
0.1524
 70
0
  0
VERTEX
  8
91
 10
50.8000
 20
55.8800
 30
0.0000
  0
VERTEX
  8
91
 10
50.8000
 20
25.4000
 30
0.0000
  0
SEQEND
  8
0
  0
POLYLINE
  8
91
 66
1
 10
0.0000
 20
0.0000
 30
0.0000
 40
0.0762
 41
0.0762
 70
0
  0
VERTEX
  8
91
 10
50.7619
 20
25.4000
 30
0.0000
 42
1.0000
  0
VERTEX
  8
91
 10
50.8381
 20
25.4000
 30
0.0000
  0
SEQEND
  8
0
  0
POLYLINE
  8
91
 66
1
 10
0.0000
 20
0.0000
 30
0.0000
 40
0.0762
 41
0.0762
 70
0
  0
VERTEX
  8
91
 10
50.8381
 20
55.8800
 30
0.0000
 42
1.0000
  0
VERTEX
  8
91
 10
50.7619
 20
55.8800
 30
0.0000
  0
SEQEND
  8
0
  0
POLYLINE
  8
91
 66
1
 10
0.0000
 20
0.0000
 30
0.0000
 40
0.1524
 41
0.1524
 70
0
  0
VERTEX
  8
91
 10
50.8000
 20
25.4000
 30
0.0000
  0
VERTEX
  8
91
 10
104.1400
 20
25.4000
 30
0.0000
  0
SEQEND
  8
0
  0
POLYLINE
  8
91
 66
1
 10
0.0000
 20
0.0000
 30
0.0000
 40
0.0762
 41
0.0762
 70
0
  0
VERTEX
  8
91
 10
104.1400
 20
25.3619
 30
0.0000
 42
1.0000
  0
VERTEX
  8
91
 10
104.1400
 20
25.4381
 30
0.0000
  0
SEQEND
  8
0
  0
POLYLINE
  8
91
 66
1
 10
0.0000
 20
0.0000
 30
0.0000
 40
0.0762
 41
0.0762
 70
0
  0
VERTEX
  8
91
 10
50.8000
 20
25.4381
 30
0.0000
 42
1.0000
  0
VERTEX
  8
91
 10
50.8000
 20
25.3619
 30
0.0000
  0
SEQEND
  8
0
  0
POLYLINE
  8
91
 66
1
 10
0.0000
 20
0.0000
 30
0.0000
 40
0.1524
 41
0.1524
 70
0
  0
VERTEX
  8
91
 10
104.1400
 20
25.4000
 30
0.0000
  0
VERTEX
  8
91
 10
104.1400
 20
53.3400
 30
0.0000
  0
SEQEND
  8
0
  0
POLYLINE
  8
91
 66
1
 10
0.0000
 20
0.0000
 30
0.0000
 40
0.0762
 41
0.0762
 70
0
  0
VERTEX
  8
91
 10
104.1781
 20
53.3400
 30
0.0000
 42
1.0000
  0
VERTEX
  8
91
 10
104.1019
 20
53.3400
 30
0.0000
  0
SEQEND
  8
0
  0
POLYLINE
  8
91
 66
1
 10
0.0000
 20
0.0000
 30
0.0000
 40
0.0762
 41
0.0762
 70
0
  0
VERTEX
  8
91
 10
104.1019
 20
25.4000
 30
0.0000
 42
1.0000
  0
VERTEX
  8
91
 10
104.1781
 20
25.4000
 30
0.0000
  0
SEQEND
  8
0
  0
POLYLINE
  8
91
 66
1
 10
0.0000
 20
0.0000
 30
0.0000
 40
0.1524
 41
0.1524
 70
0
  0
VERTEX
  8
91
 10
104.1400
 20
53.3400
 30
0.0000
  0
VERTEX
  8
91
 10
53.3400
 20
53.3400
 30
0.0000
  0
SEQEND
  8
0
  0
POLYLINE
  8
91
 66
1
 10
0.0000
 20
0.0000
 30
0.0000
 40
0.0762
 41
0.0762
 70
0
  0
VERTEX
  8
91
 10
53.3400
 20
53.3781
 30
0.0000
 42
1.0000
  0
VERTEX
  8
91
 10
53.3400
 20
53.3019
 30
0.0000
  0
SEQEND
  8
0
  0
POLYLINE
  8
91
 66
1
 10
0.0000
 20
0.0000
 30
0.0000
 40
0.0762
 41
0.0762
 70
0
  0
VERTEX
  8
91
 10
104.1400
 20
53.3019
 30
0.0000
 42
1.0000
  0
VERTEX
  8
91
 10
104.1400
 20
53.3781
 30
0.0000
  0
SEQEND
  8
0
  0
POLYLINE
  8
91
 66
1
 10
0.0000
 20
0.0000
 30
0.0000
 40
0.1524
 41
0.1524
 70
0
  0
VERTEX
  8
91
 10
53.3400
 20
53.3400
 30
0.0000
  0
VERTEX
  8
91
 10
53.3400
 20
27.9400
 30
0.0000
  0
SEQEND
  8
0
  0
POLYLINE
  8
91
 66
1
 10
0.0000
 20
0.0000
 30
0.0000
 40
0.0762
 41
0.0762
 70
0
  0
VERTEX
  8
91
 10
53.3019
 20
27.9400
 30
0.0000
 42
1.0000
  0
VERTEX
  8
91
 10
53.3781
 20
27.9400
 30
0.0000
  0
SEQEND
  8
0
  0
POLYLINE
  8
91
 66
1
 10
0.0000
 20
0.0000
 30
0.0000
 40
0.0762
 41
0.0762
 70
0
  0
VERTEX
  8
91
 10
53.3781
 20
53.3400
 30
0.0000
 42
1.0000
  0
VERTEX
  8
91
 10
53.3019
 20
53.3400
 30
0.0000
  0
SEQEND
  8
0
  0
POLYLINE
  8
91
 66
1
 10
0.0000
 20
0.0000
 30
0.0000
 40
0.1524
 41
0.1524
 70
0
  0
VERTEX
  8
91
 10
53.3400
 20
27.9400
 30
0.0000
  0
VERTEX
  8
91
 10
101.6000
 20
27.9400
 30
0.0000
  0
SEQEND
  8
0
  0
POLYLINE
  8
91
 66
1
 10
0.0000
 20
0.0000
 30
0.0000
 40
0.0762
 41
0.0762
 70
0
  0
VERTEX
  8
91
 10
101.6000
 20
27.9019
 30
0.0000
 42
1.0000
  0
VERTEX
  8
91
 10
101.6000
 20
27.9781
 30
0.0000
  0
SEQEND
  8
0
  0
POLYLINE
  8
91
 66
1
 10
0.0000
 20
0.0000
 30
0.0000
 40
0.0762
 41
0.0762
 70
0
  0
VERTEX
  8
91
 10
53.3400
 20
27.9781
 30
0.0000
 42
1.0000
  0
VERTEX
  8
91
 10
53.3400
 20
27.9019
 30
0.0000
  0
SEQEND
  8
0
  0
POLYLINE
  8
91
 66
1
 10
0.0000
 20
0.0000
 30
0.0000
 40
0.1524
 41
0.1524
 70
0
  0
VERTEX
  8
91
 10
101.6000
 20
27.9400
 30
0.0000
  0
VERTEX
  8
91
 10
101.6000
 20
50.8000
 30
0.0000
  0
SEQEND
  8
0
  0
POLYLINE
  8
91
 66
1
 10
0.0000
 20
0.0000
 30
0.0000
 40
0.0762
 41
0.0762
 70
0
  0
VERTEX
  8
91
 10
101.6381
 20
50.8000
 30
0.0000
 42
1.0000
  0
VERTEX
  8
91
 10
101.5619
 20
50.8000
 30
0.0000
  0
SEQEND
  8
0
  0
POLYLINE
  8
91
 66
1
 10
0.0000
 20
0.0000
 30
0.0000
 40
0.0762
 41
0.0762
 70
0
  0
VERTEX
  8
91
 10
101.5619
 20
27.9400
 30
0.0000
 42
1.0000
  0
VERTEX
  8
91
 10
101.6381
 20
27.9400
 30
0.0000
  0
SEQEND
  8
0
  0
POLYLINE
  8
91
 66
1
 10
0.0000
 20
0.0000
 30
0.0000
 40
0.1524
 41
0.1524
 70
0
  0
VERTEX
  8
91
 10
101.6000
 20
50.8000
 30
0.0000
  0
VERTEX
  8
91
 10
55.8800
 20
50.8000
 30
0.0000
  0
SEQEND
  8
0
  0
POLYLINE
  8
91
 66
1
 10
0.0000
 20
0.0000
 30
0.0000
 40
0.0762
 41
0.0762
 70
0
  0
VERTEX
  8
91
 10
55.8800
 20
50.8381
 30
0.0000
 42
1.0000
  0
VERTEX
  8
91
 10
55.8800
 20
50.7619
 30
0.0000
  0
SEQEND
  8
0
  0
POLYLINE
  8
91
 66
1
 10
0.0000
 20
0.0000
 30
0.0000
 40
0.0762
 41
0.0762
 70
0
  0
VERTEX
  8
91
 10
101.6000
 20
50.7619
 30
0.0000
 42
1.0000
  0
VERTEX
  8
91
 10
101.6000
 20
50.8381
 30
0.0000
  0
SEQEND
  8
0
  0
POLYLINE
  8
91
 66
1
 10
0.0000
 20
0.0000
 30
0.0000
 40
0.1524
 41
0.1524
 70
0
  0
VERTEX
  8
91
 10
55.8800
 20
50.8000
 30
0.0000
  0
VERTEX
  8
91
 10
55.8800
 20
30.4800
 30
0.0000
  0
SEQEND
  8
0
  0
POLYLINE
  8
91
 66
1
 10
0.0000
 20
0.0000
 30
0.0000
 40
0.0762
 41
0.0762
 70
0
  0
VERTEX
  8
91
 10
55.8419
 20
30.4800
 30
0.0000
 42
1.0000
  0
VERTEX
  8
91
 10
55.9181
 20
30.4800
 30
0.0000
  0
SEQEND
  8
0
  0
POLYLINE
  8
91
 66
1
 10
0.0000
 20
0.0000
 30
0.0000
 40
0.0762
 41
0.0762
 70
0
  0
VERTEX
  8
91
 10
55.9181
 20
50.8000
 30
0.0000
 42
1.0000
  0
VERTEX
  8
91
 10
55.8419
 20
50.8000
 30
0.0000
  0
SEQEND
  8
0
  0
POLYLINE
  8
91
 66
1
 10
0.0000
 20
0.0000
 30
0.0000
 40
0.1524
 41
0.1524
 70
0
  0
VERTEX
  8
91
 10
55.8800
 20
30.4800
 30
0.0000
  0
VERTEX
  8
91
 10
99.0600
 20
30.4800
 30
0.0000
  0
SEQEND
  8
0
  0
POLYLINE
  8
91
 66
1
 10
0.0000
 20
0.0000
 30
0.0000
 40
0.0762
 41
0.0762
 70
0
  0
VERTEX
  8
91
 10
99.0600
 20
30.4419
 30
0.0000
 42
1.0000
  0
VERTEX
  8
91
 10
99.0600
 20
30.5181
 30
0.0000
  0
SEQEND
  8
0
  0
POLYLINE
  8
91
 66
1
 10
0.0000
 20
0.0000
 30
0.0000
 40
0.0762
 41
0.0762
 70
0
  0
VERTEX
  8
91
 10
55.8800
 20
30.5181
 30
0.0000
 42
1.0000
  0
VERTEX
  8
91
 10
55.8800
 20
30.4419
 30
0.0000
  0
SEQEND
  8
0
  0
POLYLINE
  8
91
 66
1
 10
0.0000
 20
0.0000
 30
0.0000
 40
0.1524
 41
0.1524
 70
0
  0
VERTEX
  8
91
 10
99.0600
 20
30.4800
 30
0.0000
  0
VERTEX
  8
91
 10
99.0600
 20
48.2600
 30
0.0000
  0
SEQEND
  8
0
  0
POLYLINE
  8
91
 66
1
 10
0.0000
 20
0.0000
 30
0.0000
 40
0.0762
 41
0.0762
 70
0
  0
VERTEX
  8
91
 10
99.0981
 20
48.2600
 30
0.0000
 42
1.0000
  0
VERTEX
  8
91
 10
99.0219
 20
48.2600
 30
0.0000
  0
SEQEND
  8
0
  0
POLYLINE
  8
91
 66
1
 10
0.0000
 20
0.0000
 30
0.0000
 40
0.0762
 41
0.0762
 70
0
  0
VERTEX
  8
91
 10
99.0219
 20
30.4800
 30
0.0000
 42
1.0000
  0
VERTEX
  8
91
 10
99.0981
 20
30.4800
 30
0.0000
  0
SEQEND
  8
0
  0
POLYLINE
  8
91
 66
1
 10
0.0000
 20
0.0000
 30
0.0000
 40
0.1524
 41
0.1524
 70
0
  0
VERTEX
  8
91
 10
99.0600
 20
48.2600
 30
0.0000
  0
VERTEX
  8
91
 10
58.4200
 20
48.2600
 30
0.0000
  0
SEQEND
  8
0
  0
POLYLINE
  8
91
 66
1
 10
0.0000
 20
0.0000
 30
0.0000
 40
0.0762
 41
0.0762
 70
0
  0
VERTEX
  8
91
 10
58.4200
 20
48.2981
 30
0.0000
 42
1.0000
  0
VERTEX
  8
91
 10
58.4200
 20
48.2219
 30
0.0000
  0
SEQEND
  8
0
  0
POLYLINE
  8
91
 66
1
 10
0.0000
 20
0.0000
 30
0.0000
 40
0.0762
 41
0.0762
 70
0
  0
VERTEX
  8
91
 10
99.0600
 20
48.2219
 30
0.0000
 42
1.0000
  0
VERTEX
  8
91
 10
99.0600
 20
48.2981
 30
0.0000
  0
SEQEND
  8
0
  0
POLYLINE
  8
91
 66
1
 10
0.0000
 20
0.0000
 30
0.0000
 40
0.1524
 41
0.1524
 70
0
  0
VERTEX
  8
91
 10
58.4200
 20
48.2600
 30
0.0000
  0
VERTEX
  8
91
 10
58.4200
 20
33.0200
 30
0.0000
  0
SEQEND
  8
0
  0
POLYLINE
  8
91
 66
1
 10
0.0000
 20
0.0000
 30
0.0000
 40
0.0762
 41
0.0762
 70
0
  0
VERTEX
  8
91
 10
58.3819
 20
33.0200
 30
0.0000
 42
1.0000
  0
VERTEX
  8
91
 10
58.4581
 20
33.0200
 30
0.0000
  0
SEQEND
  8
0
  0
POLYLINE
  8
91
 66
1
 10
0.0000
 20
0.0000
 30
0.0000
 40
0.0762
 41
0.0762
 70
0
  0
VERTEX
  8
91
 10
58.4581
 20
48.2600
 30
0.0000
 42
1.0000
  0
VERTEX
  8
91
 10
58.3819
 20
48.2600
 30
0.0000
  0
SEQEND
  8
0
  0
POLYLINE
  8
91
 66
1
 10
0.0000
 20
0.0000
 30
0.0000
 40
0.1524
 41
0.1524
 70
0
  0
VERTEX
  8
91
 10
58.4200
 20
33.0200
 30
0.0000
  0
VERTEX
  8
91
 10
96.5200
 20
33.0200
 30
0.0000
  0
SEQEND
  8
0
  0
POLYLINE
  8
91
 66
1
 10
0.0000
 20
0.0000
 30
0.0000
 40
0.0762
 41
0.0762
 70
0
  0
VERTEX
  8
91
 10
96.5200
 20
32.9819
 30
0.0000
 42
1.0000
  0
VERTEX
  8
91
 10
96.5200
 20
33.0581
 30
0.0000
  0
SEQEND
  8
0
  0
POLYLINE
  8
91
 66
1
 10
0.0000
 20
0.0000
 30
0.0000
 40
0.0762
 41
0.0762
 70
0
  0
VERTEX
  8
91
 10
58.4200
 20
33.0581
 30
0.0000
 42
1.0000
  0
VERTEX
  8
91
 10
58.4200
 20
32.9819
 30
0.0000
  0
SEQEND
  8
0
  0
POLYLINE
  8
91
 66
1
 10
0.0000
 20
0.0000
 30
0.0000
 40
0.1524
 41
0.1524
 70
0
  0
VERTEX
  8
91
 10
96.5200
 20
33.0200
 30
0.0000
  0
VERTEX
  8
91
 10
96.5200
 20
45.7200
 30
0.0000
  0
SEQEND
  8
0
  0
POLYLINE
  8
91
 66
1
 10
0.0000
 20
0.0000
 30
0.0000
 40
0.0762
 41
0.0762
 70
0
  0
VERTEX
  8
91
 10
96.5581
 20
45.7200
 30
0.0000
 42
1.0000
  0
VERTEX
  8
91
 10
96.4819
 20
45.7200
 30
0.0000
  0
SEQEND
  8
0
  0
POLYLINE
  8
91
 66
1
 10
0.0000
 20
0.0000
 30
0.0000
 40
0.0762
 41
0.0762
 70
0
  0
VERTEX
  8
91
 10
96.4819
 20
33.0200
 30
0.0000
 42
1.0000
  0
VERTEX
  8
91
 10
96.5581
 20
33.0200
 30
0.0000
  0
SEQEND
  8
0
  0
POLYLINE
  8
91
 66
1
 10
0.0000
 20
0.0000
 30
0.0000
 40
0.1524
 41
0.1524
 70
0
  0
VERTEX
  8
91
 10
96.5200
 20
45.7200
 30
0.0000
  0
VERTEX
  8
91
 10
60.9600
 20
45.7200
 30
0.0000
  0
SEQEND
  8
0
  0
POLYLINE
  8
91
 66
1
 10
0.0000
 20
0.0000
 30
0.0000
 40
0.0762
 41
0.0762
 70
0
  0
VERTEX
  8
91
 10
60.9600
 20
45.7581
 30
0.0000
 42
1.0000
  0
VERTEX
  8
91
 10
60.9600
 20
45.6819
 30
0.0000
  0
SEQEND
  8
0
  0
POLYLINE
  8
91
 66
1
 10
0.0000
 20
0.0000
 30
0.0000
 40
0.0762
 41
0.0762
 70
0
  0
VERTEX
  8
91
 10
96.5200
 20
45.6819
 30
0.0000
 42
1.0000
  0
VERTEX
  8
91
 10
96.5200
 20
45.7581
 30
0.0000
  0
SEQEND
  8
0
  0
POLYLINE
  8
91
 66
1
 10
0.0000
 20
0.0000
 30
0.0000
 40
0.1524
 41
0.1524
 70
0
  0
VERTEX
  8
91
 10
60.9600
 20
45.7200
 30
0.0000
  0
VERTEX
  8
91
 10
60.9600
 20
35.5600
 30
0.0000
  0
SEQEND
  8
0
  0
POLYLINE
  8
91
 66
1
 10
0.0000
 20
0.0000
 30
0.0000
 40
0.0762
 41
0.0762
 70
0
  0
VERTEX
  8
91
 10
60.9219
 20
35.5600
 30
0.0000
 42
1.0000
  0
VERTEX
  8
91
 10
60.9981
 20
35.5600
 30
0.0000
  0
SEQEND
  8
0
  0
POLYLINE
  8
91
 66
1
 10
0.0000
 20
0.0000
 30
0.0000
 40
0.0762
 41
0.0762
 70
0
  0
VERTEX
  8
91
 10
60.9981
 20
45.7200
 30
0.0000
 42
1.0000
  0
VERTEX
  8
91
 10
60.9219
 20
45.7200
 30
0.0000
  0
SEQEND
  8
0
  0
POLYLINE
  8
91
 66
1
 10
0.0000
 20
0.0000
 30
0.0000
 40
0.1524
 41
0.1524
 70
0
  0
VERTEX
  8
91
 10
60.9600
 20
35.5600
 30
0.0000
  0
VERTEX
  8
91
 10
93.9800
 20
35.5600
 30
0.0000
  0
SEQEND
  8
0
  0
POLYLINE
  8
91
 66
1
 10
0.0000
 20
0.0000
 30
0.0000
 40
0.0762
 41
0.0762
 70
0
  0
VERTEX
  8
91
 10
93.9800
 20
35.5219
 30
0.0000
 42
1.0000
  0
VERTEX
  8
91
 10
93.9800
 20
35.5981
 30
0.0000
  0
SEQEND
  8
0
  0
POLYLINE
  8
91
 66
1
 10
0.0000
 20
0.0000
 30
0.0000
 40
0.0762
 41
0.0762
 70
0
  0
VERTEX
  8
91
 10
60.9600
 20
35.5981
 30
0.0000
 42
1.0000
  0
VERTEX
  8
91
 10
60.9600
 20
35.5219
 30
0.0000
  0
SEQEND
  8
0
  0
POLYLINE
  8
91
 66
1
 10
0.0000
 20
0.0000
 30
0.0000
 40
0.1524
 41
0.1524
 70
0
  0
VERTEX
  8
91
 10
93.9800
 20
35.5600
 30
0.0000
  0
VERTEX
  8
91
 10
93.9800
 20
43.1800
 30
0.0000
  0
SEQEND
  8
0
  0
POLYLINE
  8
91
 66
1
 10
0.0000
 20
0.0000
 30
0.0000
 40
0.0762
 41
0.0762
 70
0
  0
VERTEX
  8
91
 10
94.0181
 20
43.1800
 30
0.0000
 42
1.0000
  0
VERTEX
  8
91
 10
93.9419
 20
43.1800
 30
0.0000
  0
SEQEND
  8
0
  0
POLYLINE
  8
91
 66
1
 10
0.0000
 20
0.0000
 30
0.0000
 40
0.0762
 41
0.0762
 70
0
  0
VERTEX
  8
91
 10
93.9419
 20
35.5600
 30
0.0000
 42
1.0000
  0
VERTEX
  8
91
 10
94.0181
 20
35.5600
 30
0.0000
  0
SEQEND
  8
0
  0
POLYLINE
  8
91
 66
1
 10
0.0000
 20
0.0000
 30
0.0000
 40
0.1524
 41
0.1524
 70
0
  0
VERTEX
  8
91
 10
93.9800
 20
43.1800
 30
0.0000
  0
VERTEX
  8
91
 10
63.5000
 20
43.1800
 30
0.0000
  0
SEQEND
  8
0
  0
POLYLINE
  8
91
 66
1
 10
0.0000
 20
0.0000
 30
0.0000
 40
0.0762
 41
0.0762
 70
0
  0
VERTEX
  8
91
 10
63.5000
 20
43.2181
 30
0.0000
 42
1.0000
  0
VERTEX
  8
91
 10
63.5000
 20
43.1419
 30
0.0000
  0
SEQEND
  8
0
  0
POLYLINE
  8
91
 66
1
 10
0.0000
 20
0.0000
 30
0.0000
 40
0.0762
 41
0.0762
 70
0
  0
VERTEX
  8
91
 10
93.9800
 20
43.1419
 30
0.0000
 42
1.0000
  0
VERTEX
  8
91
 10
93.9800
 20
43.2181
 30
0.0000
  0
SEQEND
  8
0
  0
POLYLINE
  8
91
 66
1
 10
0.0000
 20
0.0000
 30
0.0000
 40
0.1524
 41
0.1524
 70
0
  0
VERTEX
  8
91
 10
63.5000
 20
43.1800
 30
0.0000
  0
VERTEX
  8
91
 10
63.5000
 20
38.1000
 30
0.0000
  0
SEQEND
  8
0
  0
POLYLINE
  8
91
 66
1
 10
0.0000
 20
0.0000
 30
0.0000
 40
0.0762
 41
0.0762
 70
0
  0
VERTEX
  8
91
 10
63.4619
 20
38.1000
 30
0.0000
 42
1.0000
  0
VERTEX
  8
91
 10
63.5381
 20
38.1000
 30
0.0000
  0
SEQEND
  8
0
  0
POLYLINE
  8
91
 66
1
 10
0.0000
 20
0.0000
 30
0.0000
 40
0.0762
 41
0.0762
 70
0
  0
VERTEX
  8
91
 10
63.5381
 20
43.1800
 30
0.0000
 42
1.0000
  0
VERTEX
  8
91
 10
63.4619
 20
43.1800
 30
0.0000
  0
SEQEND
  8
0
  0
POLYLINE
  8
91
 66
1
 10
0.0000
 20
0.0000
 30
0.0000
 40
0.1524
 41
0.1524
 70
0
  0
VERTEX
  8
91
 10
63.5000
 20
38.1000
 30
0.0000
  0
VERTEX
  8
91
 10
91.4400
 20
38.1000
 30
0.0000
  0
SEQEND
  8
0
  0
POLYLINE
  8
91
 66
1
 10
0.0000
 20
0.0000
 30
0.0000
 40
0.0762
 41
0.0762
 70
0
  0
VERTEX
  8
91
 10
91.4400
 20
38.0619
 30
0.0000
 42
1.0000
  0
VERTEX
  8
91
 10
91.4400
 20
38.1381
 30
0.0000
  0
SEQEND
  8
0
  0
POLYLINE
  8
91
 66
1
 10
0.0000
 20
0.0000
 30
0.0000
 40
0.0762
 41
0.0762
 70
0
  0
VERTEX
  8
91
 10
63.5000
 20
38.1381
 30
0.0000
 42
1.0000
  0
VERTEX
  8
91
 10
63.5000
 20
38.0619
 30
0.0000
  0
SEQEND
  8
0
  0
POLYLINE
  8
91
 66
1
 10
0.0000
 20
0.0000
 30
0.0000
 40
0.1524
 41
0.1524
 70
0
  0
VERTEX
  8
91
 10
91.4400
 20
38.1000
 30
0.0000
  0
VERTEX
  8
91
 10
91.4400
 20
40.6400
 30
0.0000
  0
SEQEND
  8
0
  0
POLYLINE
  8
91
 66
1
 10
0.0000
 20
0.0000
 30
0.0000
 40
0.0762
 41
0.0762
 70
0
  0
VERTEX
  8
91
 10
91.4781
 20
40.6400
 30
0.0000
 42
1.0000
  0
VERTEX
  8
91
 10
91.4019
 20
40.6400
 30
0.0000
  0
SEQEND
  8
0
  0
POLYLINE
  8
91
 66
1
 10
0.0000
 20
0.0000
 30
0.0000
 40
0.0762
 41
0.0762
 70
0
  0
VERTEX
  8
91
 10
91.4019
 20
38.1000
 30
0.0000
 42
1.0000
  0
VERTEX
  8
91
 10
91.4781
 20
38.1000
 30
0.0000
  0
SEQEND
  8
0
  0
POLYLINE
  8
91
 66
1
 10
0.0000
 20
0.0000
 30
0.0000
 40
0.1524
 41
0.1524
 70
0
  0
VERTEX
  8
91
 10
91.4400
 20
40.6400
 30
0.0000
  0
VERTEX
  8
91
 10
68.5800
 20
40.6400
 30
0.0000
  0
SEQEND
  8
0
  0
POLYLINE
  8
91
 66
1
 10
0.0000
 20
0.0000
 30
0.0000
 40
0.0762
 41
0.0762
 70
0
  0
VERTEX
  8
91
 10
68.5800
 20
40.6781
 30
0.0000
 42
1.0000
  0
VERTEX
  8
91
 10
68.5800
 20
40.6019
 30
0.0000
  0
SEQEND
  8
0
  0
POLYLINE
  8
91
 66
1
 10
0.0000
 20
0.0000
 30
0.0000
 40
0.0762
 41
0.0762
 70
0
  0
VERTEX
  8
91
 10
91.4400
 20
40.6019
 30
0.0000
 42
1.0000
  0
VERTEX
  8
91
 10
91.4400
 20
40.6781
 30
0.0000
  0
SEQEND
  8
0
  0
POLYLINE
  8
91
 66
1
 10
0.0000
 20
0.0000
 30
0.0000
 40
0.1524
 41
0.1524
 70
0
  0
VERTEX
  8
91
 10
66.0400
 20
40.6400
 30
0.0000
  0
VERTEX
  8
91
 10
68.5800
 20
40.6400
 30
0.0000
  0
SEQEND
  8
0
  0
POLYLINE
  8
91
 66
1
 10
0.0000
 20
0.0000
 30
0.0000
 40
0.0762
 41
0.0762
 70
0
  0
VERTEX
  8
91
 10
68.5800
 20
40.6019
 30
0.0000
 42
1.0000
  0
VERTEX
  8
91
 10
68.5800
 20
40.6781
 30
0.0000
  0
SEQEND
  8
0
  0
POLYLINE
  8
91
 66
1
 10
0.0000
 20
0.0000
 30
0.0000
 40
0.0762
 41
0.0762
 70
0
  0
VERTEX
  8
91
 10
66.0400
 20
40.6781
 30
0.0000
 42
1.0000
  0
VERTEX
  8
91
 10
66.0400
 20
40.6019
 30
0.0000
  0
SEQEND
  8
0
  0
ENDSEC
  0
EOF
